<svg width="32" height="32" viewBox="0 0 32 32" fill="none" xmlns="http://www.w3.org/2000/svg">
<path fill-rule="evenodd" clip-rule="evenodd" d="M6.93979 20.5C6.93979 21.3726 6.23239 22.08 5.35979 22.08C4.48718 22.08 3.77979 21.3726 3.77979 20.5C3.77979 19.6274 4.48718 18.92 5.35979 18.92C6.23239 18.92 6.93979 19.6274 6.93979 20.5ZM28.1998 20.5C28.1998 21.3726 27.4924 22.08 26.6198 22.08C25.7472 22.08 25.0398 21.3726 25.0398 20.5C25.0398 19.6274 25.7472 18.92 26.6198 18.92C27.4924 18.92 28.1998 19.6274 28.1998 20.5Z" fill="#00A6ED"/>
<path fill-rule="evenodd" clip-rule="evenodd" d="M10.2498 10.27L13.4298 14.54L6.83984 15.3L8.95984 10.41C8.44984 10.21 8.08984 9.71 8.08984 9.13C8.08984 8.37 8.70984 7.75 9.46984 7.75C10.2298 7.75 10.8498 8.37 10.8498 9.13C10.8498 9.61 10.6098 10.02 10.2498 10.27ZM23.01 10.41L25.13 15.3L18.54 14.54L21.72 10.27C21.36 10.02 21.12 9.6 21.12 9.13C21.12 8.37 21.74 7.75 22.5 7.75C23.26 7.75 23.88 8.37 23.88 9.13C23.88 9.71 23.52 10.21 23.01 10.41Z" fill="#E19747"/>
<path d="M29.98 10.09C29.98 9.33 29.36 8.70999 28.6 8.70999C27.84 8.70999 27.22 9.33 27.22 10.09C27.22 10.37 27.31 10.64 27.45 10.85C27.23 10.85 27.01 10.9 26.8 11.04L22.87 13.58C22.35 13.91 21.67 13.79 21.3 13.29L16.93 7.36002C16.9 7.31002 16.86 7.27001 16.82 7.23001C17.35 6.94001 17.71 6.37 17.71 5.72C17.71 4.77 16.94 4 15.99 4C15.04 4 14.27 4.77 14.27 5.72C14.27 6.37 14.63 6.94001 15.16 7.23001C15.12 7.27001 15.08 7.31002 15.05 7.36002L10.68 13.29C10.32 13.79 9.63 13.91 9.11 13.58L5.18 11.04C4.97 10.9 4.75 10.85 4.53 10.85C4.68 10.63 4.76 10.37 4.76 10.09C4.76 9.33 4.14 8.70999 3.38 8.70999C2.62 8.70999 2 9.33 2 10.09C2 10.85 2.62 11.47 3.38 11.47C3.43 11.47 3.48 11.47 3.52 11.46C3.39 11.69 3.34 11.96 3.4 12.25L6 25.22C6.19 26.15 7.01 26.82 7.96 26.82H10.03H15.99H21.95H24.02C24.97 26.82 25.79 26.15 25.98 25.22L28.58 12.25C28.64 11.96 28.58 11.68 28.46 11.46C28.51 11.46 28.56 11.47 28.6 11.47C29.36 11.47 29.98 10.85 29.98 10.09Z" fill="#FFB02E"/>
<path d="M15.99 23C17.3707 23 18.49 21.8807 18.49 20.5C18.49 19.1193 17.3707 18 15.99 18C14.6093 18 13.49 19.1193 13.49 20.5C13.49 21.8807 14.6093 23 15.99 23Z" fill="#00A6ED"/>
<path fill-rule="evenodd" clip-rule="evenodd" d="M11 20.5C11 21.3284 10.3284 22 9.5 22C8.67157 22 8 21.3284 8 20.5C8 19.6716 8.67157 19 9.5 19C10.3284 19 11 19.6716 11 20.5ZM24 20.5C24 21.3284 23.3284 22 22.5 22C21.6716 22 21 21.3284 21 20.5C21 19.6716 21.6716 19 22.5 19C23.3284 19 24 19.6716 24 20.5Z" fill="#F8312F"/>
</svg>
