<svg width="16" height="16" viewBox="0 0 16 16" fill="none" xmlns="http://www.w3.org/2000/svg">
<path fill-rule="evenodd" clip-rule="evenodd" d="M2.5 11.5C2.5 11.2239 2.72386 11 3 11H13C13.2761 11 13.5 11.2239 13.5 11.5C13.5 11.7761 13.2761 12 13 12H3C2.72386 12 2.5 11.7761 2.5 11.5Z" fill="black"/>
<path fill-rule="evenodd" clip-rule="evenodd" d="M7 7.5C7 7.22386 7.22386 7 7.5 7H13C13.2761 7 13.5 7.22386 13.5 7.5C13.5 7.77614 13.2761 8 13 8H7.5C7.22386 8 7 7.77614 7 7.5Z" fill="black"/>
<path fill-rule="evenodd" clip-rule="evenodd" d="M9 3.5C9 3.22386 9.22386 3 9.5 3H13C13.2761 3 13.5 3.22386 13.5 3.5C13.5 3.77614 13.2761 4 13 4H9.5C9.22386 4 9 3.77614 9 3.5Z" fill="black"/>
<path d="M3.12886 7.52586C3.00809 7.58793 2.87135 7.47946 2.89567 7.34087L3.15496 5.86291L2.05423 4.81396C1.95136 4.71593 2.00461 4.53669 2.14242 4.51711L3.67319 4.29965L4.35573 2.94761C4.41721 2.82581 4.58376 2.82581 4.64525 2.94761L5.32779 4.29965L6.85856 4.51711C6.99637 4.53669 7.04962 4.71593 6.94675 4.81396L5.84602 5.86291L6.10531 7.34087C6.12962 7.47946 5.99288 7.58793 5.87212 7.52586L4.50049 6.82088L3.12886 7.52586Z" fill="black"/>
</svg>
