<svg width="16" height="16" viewBox="0 0 16 16" fill="none" xmlns="http://www.w3.org/2000/svg">
<path fill-rule="evenodd" clip-rule="evenodd" d="M2.5 11.5C2.5 11.2239 2.72386 11 3 11H8.5C8.77614 11 9 11.2239 9 11.5C9 11.7761 8.77614 12 8.5 12H3C2.72386 12 2.5 11.7761 2.5 11.5Z" fill="black"/>
<path fill-rule="evenodd" clip-rule="evenodd" d="M2.5 7.5C2.5 7.22386 2.72386 7 3 7L6 7C6.27614 7 6.5 7.22386 6.5 7.5C6.5 7.77614 6.27614 8 6 8H3C2.72386 8 2.5 7.77614 2.5 7.5Z" fill="black"/>
<path fill-rule="evenodd" clip-rule="evenodd" d="M2.5 3.5C2.5 3.22386 2.72386 3 3 3H6C6.27614 3 6.5 3.22386 6.5 3.5C6.5 3.77614 6.27614 4 6 4H3C2.72386 4 2.5 3.77614 2.5 3.5Z" fill="black"/>
<path d="M12.8711 8.17194C13.2665 7.63365 13.5 6.9691 13.5 6.25C13.5 4.45507 12.0449 3 10.25 3C8.45507 3 7 4.45507 7 6.25C7 8.04493 8.45507 9.5 10.25 9.5C10.9693 9.5 11.634 9.26633 12.1724 8.87076L12.1719 8.87108C12.1867 8.89108 12.2031 8.91022 12.2212 8.92832L14.1464 10.8536C14.3417 11.0488 14.6583 11.0488 14.8536 10.8536C15.0488 10.6583 15.0488 10.3417 14.8536 10.1464L12.9283 8.22122C12.9102 8.20311 12.8911 8.18669 12.8711 8.17194ZM13 6.25C13 7.76878 11.7688 9 10.25 9C8.73122 9 7.5 7.76878 7.5 6.25C7.5 4.73122 8.73122 3.5 10.25 3.5C11.7688 3.5 13 4.73122 13 6.25Z" fill="black"/>
</svg>
