<svg width="10" height="10" viewBox="0 0 10 10" fill="none" xmlns="http://www.w3.org/2000/svg">
<g clip-path="url(#clip0_190_16)">
<path d="M6.68458 5.83362H3.31542C2.76784 5.83428 2.24287 6.0521 1.85568 6.4393C1.46848 6.82649 1.25066 7.35146 1.25 7.89904V10.0003H8.75V7.89904C8.74934 7.35146 8.53152 6.82649 8.14432 6.4393C7.75713 6.0521 7.23216 5.83428 6.68458 5.83362Z" fill="#70818D"/>
<path d="M5 5C6.38071 5 7.5 3.88071 7.5 2.5C7.5 1.11929 6.38071 0 5 0C3.61929 0 2.5 1.11929 2.5 2.5C2.5 3.88071 3.61929 5 5 5Z" fill="#70818D"/>
</g>
<defs>
<clipPath id="clip0_190_16">
<rect width="10" height="10" fill="white"/>
</clipPath>
</defs>
</svg>
