<svg width="18" height="18" viewBox="0 0 18 18" fill="none" xmlns="http://www.w3.org/2000/svg">
<g clip-path="url(#clip0_190_43)">
<path d="M14.3481 11.7402L14.3481 10.1973C14.3472 10.0737 14.3001 9.95482 14.216 9.86421C14.1318 9.77361 14.0168 9.71781 13.8936 9.70783C13.7032 9.69252 13.5255 9.60626 13.3957 9.46612C13.266 9.32599 13.1936 9.14222 13.1929 8.95124C13.1936 8.7603 13.266 8.5766 13.3957 8.43651C13.5255 8.29642 13.7031 8.21016 13.8934 8.19482C14.0166 8.18484 14.1317 8.12904 14.2158 8.03843C14.2999 7.94783 14.3471 7.82898 14.3479 7.70534L14.3481 6.16087C14.348 6.03048 14.2961 5.90548 14.2039 5.81329C14.1117 5.72109 13.9867 5.66924 13.8563 5.66912L11.3969 5.66894C11.2448 5.66921 11.0948 5.70469 10.9586 5.77261C10.9324 5.78558 10.9035 5.79233 10.8742 5.79233C10.8449 5.79233 10.816 5.78558 10.7898 5.77261C10.6536 5.70465 10.5035 5.66923 10.3513 5.66912L4.04406 5.66912C3.91368 5.66924 3.78867 5.72109 3.69648 5.81329C3.60429 5.90548 3.55244 6.03049 3.55231 6.16087L3.55319 7.70464C3.55402 7.82829 3.60116 7.94713 3.68529 8.03773C3.76943 8.12834 3.88446 8.18414 4.0077 8.19412C4.19854 8.20847 4.37691 8.29441 4.50706 8.43472C4.63721 8.57503 4.70953 8.75933 4.70953 8.95071C4.70953 9.14209 4.63721 9.3264 4.50706 9.46671C4.3769 9.60701 4.19854 9.69295 4.0077 9.7073C3.88446 9.71729 3.76943 9.77308 3.68529 9.86369C3.60116 9.9543 3.55402 10.0731 3.55319 10.1968L3.55318 11.7397C3.55331 11.8701 3.60516 11.9951 3.69735 12.0873C3.78955 12.1795 3.91455 12.2313 4.04493 12.2314L10.3522 12.2314C10.5043 12.2313 10.6543 12.1959 10.7905 12.1281C10.8167 12.1151 10.8457 12.1083 10.8751 12.1083C10.9044 12.1083 10.9334 12.1151 10.9597 12.1281C11.0958 12.196 11.2457 12.2314 11.3978 12.2316L13.8572 12.2314C13.9873 12.2311 14.112 12.1792 14.204 12.0871C14.296 11.9951 14.3478 11.8703 14.3481 11.7402ZM10.8742 7.22967C10.8222 7.22968 10.7708 7.21945 10.7228 7.19957C10.6748 7.17969 10.6312 7.15056 10.5944 7.11382C10.5577 7.07708 10.5286 7.03347 10.5087 6.98547C10.4888 6.93747 10.4786 6.88603 10.4786 6.83407V6.43165C10.4801 6.32776 10.5225 6.22864 10.5965 6.15572C10.6705 6.0828 10.7703 6.04194 10.8742 6.04196C10.9781 6.04199 11.0778 6.08289 11.1518 6.15584C11.2258 6.2288 11.2681 6.32793 11.2696 6.43183L11.2698 6.83407C11.2698 6.88603 11.2596 6.93747 11.2397 6.98547C11.2198 7.03347 11.1907 7.07708 11.1539 7.11382C11.1172 7.15056 11.0736 7.17969 11.0256 7.19957C10.9776 7.21945 10.9261 7.22968 10.8742 7.22967ZM10.8742 8.76803C10.7693 8.768 10.6688 8.72633 10.5946 8.65218C10.5205 8.57803 10.4788 8.47747 10.4788 8.3726V7.98801C10.4788 7.93606 10.489 7.88462 10.5089 7.83662C10.5288 7.78863 10.5579 7.74502 10.5946 7.70828C10.6314 7.67155 10.675 7.64241 10.723 7.62253C10.771 7.60265 10.8224 7.59241 10.8744 7.59241C10.9793 7.59241 11.0799 7.63409 11.1541 7.70828C11.1908 7.74502 11.22 7.78863 11.2399 7.83662C11.2597 7.88462 11.27 7.93606 11.27 7.98801L11.27 8.3726C11.2701 8.42465 11.2599 8.47619 11.24 8.5243C11.2202 8.5724 11.191 8.61611 11.1542 8.65293C11.1175 8.68974 11.0738 8.71894 11.0257 8.73884C10.9776 8.75874 10.9262 8.76808 10.8742 8.76803ZM10.8742 10.3064C10.8222 10.3064 10.7708 10.2962 10.7228 10.2763C10.6748 10.2564 10.6312 10.2273 10.5944 10.1905C10.5577 10.1538 10.5286 10.1102 10.5087 10.0622C10.4888 10.0142 10.4786 9.96274 10.4786 9.91079V9.5262C10.4801 9.4223 10.5225 9.32318 10.5965 9.25027C10.6705 9.17735 10.7703 9.13648 10.8742 9.13651C10.9781 9.13653 11.0778 9.17744 11.1518 9.25039C11.2258 9.32334 11.2681 9.42248 11.2696 9.52637V9.91096C11.2698 9.96303 11.2598 10.0146 11.24 10.0628C11.2202 10.111 11.1911 10.1548 11.1544 10.1917C11.1176 10.2286 11.074 10.2578 11.0259 10.2778C10.9778 10.2978 10.9263 10.3081 10.8742 10.3081L10.8742 10.3064ZM10.8723 11.8617C10.8203 11.8617 10.7689 11.8515 10.7209 11.8316C10.6729 11.8117 10.6293 11.7826 10.5925 11.7458C10.5558 11.7091 10.5266 11.6655 10.5068 11.6175C10.4869 11.5695 10.4767 11.5181 10.4767 11.4661L10.4777 11.0651C10.4771 11.0127 10.4869 10.9606 10.5065 10.912C10.5262 10.8634 10.5553 10.8192 10.5922 10.782C10.6291 10.7447 10.673 10.7152 10.7214 10.6951C10.7699 10.6749 10.8218 10.6647 10.8742 10.6648C10.9266 10.6649 10.9785 10.6755 11.0268 10.6958C11.0751 10.7162 11.1189 10.7459 11.1556 10.7833C11.1923 10.8208 11.2212 10.8651 11.2407 10.9138C11.2601 10.9625 11.2696 11.0146 11.2687 11.067L11.268 11.468C11.268 11.52 11.2578 11.5714 11.2379 11.6194C11.218 11.6674 11.1888 11.711 11.1521 11.7477C11.1153 11.7844 11.0717 11.8136 11.0237 11.8334C10.9757 11.8533 10.9242 11.8635 10.8723 11.8634L10.8723 11.8617Z" fill="white"/>
</g>
<defs>
<clipPath id="clip0_190_43">
<rect width="12.6578" height="12.6578" fill="white" transform="translate(8.9502) rotate(45)"/>
</clipPath>
</defs>
</svg>
