<svg xmlns="http://www.w3.org/2000/svg" xmlns:xlink="http://www.w3.org/1999/xlink" width="484" zoomAndPan="magnify" viewBox="0 0 363 105.749996" height="141" preserveAspectRatio="xMidYMid meet" version="1.0"><defs><g/><clipPath id="3819f94a95"><path d="M 10.886719 14.617188 L 352.046875 14.617188 L 352.046875 90.296875 L 10.886719 90.296875 Z M 10.886719 14.617188 " clip-rule="nonzero"/></clipPath><clipPath id="457b694c02"><path d="M 28.097656 14.617188 L 334.820312 14.617188 C 339.382812 14.617188 343.761719 16.429688 346.988281 19.65625 C 350.214844 22.882812 352.027344 27.261719 352.027344 31.824219 L 352.027344 73.089844 C 352.027344 77.652344 350.214844 82.03125 346.988281 85.257812 C 343.761719 88.484375 339.382812 90.296875 334.820312 90.296875 L 28.097656 90.296875 C 23.53125 90.296875 19.15625 88.484375 15.929688 85.257812 C 12.699219 82.03125 10.886719 77.652344 10.886719 73.089844 L 10.886719 31.824219 C 10.886719 27.261719 12.699219 22.882812 15.929688 19.65625 C 19.15625 16.429688 23.53125 14.617188 28.097656 14.617188 Z M 28.097656 14.617188 " clip-rule="nonzero"/></clipPath></defs><g clip-path="url(#3819f94a95)"><g clip-path="url(#457b694c02)"><path fill="#ffffff" d="M 10.886719 14.617188 L 352.046875 14.617188 L 352.046875 90.296875 L 10.886719 90.296875 Z M 10.886719 14.617188 " fill-opacity="1" fill-rule="nonzero"/></g></g><g fill="#000000" fill-opacity="1"><g transform="translate(19.567221, 67.274472)"><g><path d="M 16.890625 -39.1875 C 17.046875 -39.226562 17.351562 -39.257812 17.8125 -39.28125 C 18.269531 -39.300781 18.863281 -39.289062 19.59375 -39.25 C 20.820312 -39.207031 21.988281 -39.128906 23.09375 -39.015625 C 24.207031 -38.898438 25.28125 -38.695312 26.3125 -38.40625 C 27.351562 -38.125 28.367188 -37.722656 29.359375 -37.203125 C 30.359375 -36.691406 31.316406 -36.015625 32.234375 -35.171875 C 33.734375 -33.796875 34.804688 -32.148438 35.453125 -30.234375 C 35.535156 -30.035156 35.625 -29.773438 35.71875 -29.453125 C 35.8125 -29.128906 35.894531 -28.753906 35.96875 -28.328125 C 36.050781 -27.910156 36.117188 -27.566406 36.171875 -27.296875 C 36.234375 -27.023438 36.265625 -26.832031 36.265625 -26.71875 L 36.265625 -26.4375 L 25 -26.4375 L 24.890625 -27.0625 C 24.773438 -27.757812 24.503906 -28.351562 24.078125 -28.84375 C 23.660156 -29.34375 23.171875 -29.765625 22.609375 -30.109375 C 22.054688 -30.453125 21.453125 -30.703125 20.796875 -30.859375 C 20.148438 -31.015625 19.5 -31.09375 18.84375 -31.09375 C 16.46875 -31.09375 15.242188 -29.960938 15.171875 -27.703125 C 15.171875 -26.816406 15.628906 -26.046875 16.546875 -25.390625 C 17.472656 -24.742188 19.125 -24.078125 21.5 -23.390625 C 23.375 -22.773438 24.972656 -22.238281 26.296875 -21.78125 C 27.617188 -21.320312 28.71875 -20.878906 29.59375 -20.453125 C 30.4375 -20.035156 31.179688 -19.601562 31.828125 -19.15625 C 32.484375 -18.71875 33.0625 -18.269531 33.5625 -17.8125 C 34.820312 -16.582031 35.785156 -15.144531 36.453125 -13.5 C 37.128906 -11.851562 37.429688 -10.148438 37.359375 -8.390625 C 37.203125 -5.898438 36.566406 -3.8125 35.453125 -2.125 C 34.347656 -0.4375 32.929688 0.921875 31.203125 1.953125 C 29.484375 2.984375 27.554688 3.71875 25.421875 4.15625 C 23.296875 4.601562 21.144531 4.847656 18.96875 4.890625 C 17.007812 4.890625 15.164062 4.675781 13.4375 4.25 C 11.71875 3.832031 10.160156 3.179688 8.765625 2.296875 C 7.367188 1.421875 6.160156 0.273438 5.140625 -1.140625 C 4.128906 -2.566406 3.351562 -4.273438 2.8125 -6.265625 C 2.425781 -7.523438 2.234375 -8.460938 2.234375 -9.078125 C 2.234375 -9.234375 4.148438 -9.269531 7.984375 -9.1875 L 13.796875 -9.1875 L 13.84375 -8.390625 C 14.070312 -7.273438 14.5625 -6.285156 15.3125 -5.421875 C 16.0625 -4.566406 16.9375 -3.984375 17.9375 -3.671875 C 18.195312 -3.597656 18.5 -3.539062 18.84375 -3.5 C 19.1875 -3.46875 19.570312 -3.453125 20 -3.453125 C 20.957031 -3.453125 21.875 -3.625 22.75 -3.96875 C 23.632812 -4.3125 24.269531 -4.984375 24.65625 -5.984375 C 25.039062 -6.785156 25.078125 -7.703125 24.765625 -8.734375 C 24.460938 -9.847656 24.003906 -10.632812 23.390625 -11.09375 C 22.660156 -11.664062 20.6875 -12.394531 17.46875 -13.28125 C 15.894531 -13.695312 14.503906 -14.113281 13.296875 -14.53125 C 12.097656 -14.957031 11.054688 -15.378906 10.171875 -15.796875 C 7.640625 -17.023438 5.847656 -18.53125 4.796875 -20.3125 C 3.742188 -22.09375 3.273438 -24.441406 3.390625 -27.359375 C 3.460938 -29.191406 3.820312 -30.785156 4.46875 -32.140625 C 5.125 -33.503906 6 -34.664062 7.09375 -35.625 C 8.1875 -36.582031 9.460938 -37.347656 10.921875 -37.921875 C 12.378906 -38.503906 13.945312 -38.890625 15.625 -39.078125 C 15.851562 -39.078125 16.101562 -39.09375 16.375 -39.125 C 16.644531 -39.164062 16.816406 -39.1875 16.890625 -39.1875 Z M 16.890625 -39.1875 "/></g></g></g><g fill="#000000" fill-opacity="1"><g transform="translate(59.043069, 67.274472)"><g><path d="M 1.15625 -38.84375 L 35 -38.84375 L 35 -30.0625 L 1.15625 -30.0625 Z M 11.84375 -28.046875 L 11.546875 -28.328125 L 23.96875 -28.328125 L 23.96875 4.375 L 12.359375 4.375 L 12.359375 -11.265625 C 12.359375 -16.628906 12.359375 -20.660156 12.359375 -23.359375 C 12.359375 -26.054688 12.335938 -27.445312 12.296875 -27.53125 C 12.253906 -27.675781 12.101562 -27.847656 11.84375 -28.046875 Z M 11.84375 -28.046875 "/></g></g></g><g fill="#000000" fill-opacity="1"><g transform="translate(95.186183, 67.274472)"><g><path d="M 11.609375 -38.671875 C 11.492188 -38.710938 11.53125 -38.753906 11.71875 -38.796875 C 11.988281 -38.828125 12.800781 -38.84375 14.15625 -38.84375 C 15.519531 -38.84375 17.332031 -38.84375 19.59375 -38.84375 L 28.21875 -38.84375 L 28.625 -37.703125 C 28.8125 -36.898438 29.15625 -35.691406 29.65625 -34.078125 C 29.957031 -33.078125 30.203125 -32.234375 30.390625 -31.546875 C 30.585938 -30.859375 30.722656 -30.320312 30.796875 -29.9375 C 30.835938 -29.707031 31.128906 -28.710938 31.671875 -26.953125 C 32.203125 -25.222656 32.601562 -23.84375 32.875 -22.8125 C 33.289062 -21.394531 33.691406 -20.015625 34.078125 -18.671875 C 34.460938 -17.335938 34.847656 -16.054688 35.234375 -14.828125 C 35.304688 -14.554688 35.398438 -14.21875 35.515625 -13.8125 C 35.628906 -13.414062 35.78125 -12.945312 35.96875 -12.40625 C 36.125 -11.875 36.238281 -11.441406 36.3125 -11.109375 C 36.394531 -10.785156 36.457031 -10.566406 36.5 -10.453125 C 36.53125 -10.378906 36.570312 -10.207031 36.625 -9.9375 C 36.6875 -9.675781 36.796875 -9.332031 36.953125 -8.90625 C 37.253906 -8.019531 37.425781 -7.40625 37.46875 -7.0625 C 37.507812 -6.945312 37.566406 -6.738281 37.640625 -6.4375 C 37.710938 -6.132812 37.796875 -5.816406 37.890625 -5.484375 C 37.992188 -5.160156 38.09375 -4.863281 38.1875 -4.59375 C 38.28125 -4.320312 38.328125 -4.148438 38.328125 -4.078125 C 38.367188 -4.035156 38.503906 -3.597656 38.734375 -2.765625 C 38.773438 -2.609375 38.859375 -2.289062 38.984375 -1.8125 C 39.117188 -1.332031 39.265625 -0.851562 39.421875 -0.375 C 39.578125 0.101562 39.710938 0.539062 39.828125 0.9375 C 39.941406 1.34375 40.019531 1.566406 40.0625 1.609375 C 40.0625 1.765625 40.117188 2.03125 40.234375 2.40625 C 40.347656 2.789062 40.441406 3.039062 40.515625 3.15625 C 40.554688 3.382812 40.59375 3.582031 40.625 3.75 C 40.664062 3.925781 40.707031 4.070312 40.75 4.1875 C 40.78125 4.226562 40.722656 4.269531 40.578125 4.3125 C 40.421875 4.351562 39.890625 4.375 38.984375 4.375 C 38.085938 4.375 36.894531 4.375 35.40625 4.375 L 29.484375 4.375 L 29.25 3.671875 C 29.175781 3.484375 29.097656 3.242188 29.015625 2.953125 C 28.941406 2.671875 28.867188 2.335938 28.796875 1.953125 C 28.796875 1.878906 28.753906 1.707031 28.671875 1.4375 C 28.597656 1.164062 28.503906 0.820312 28.390625 0.40625 C 28.234375 -0.0195312 28.109375 -0.414062 28.015625 -0.78125 C 27.921875 -1.144531 27.832031 -1.476562 27.75 -1.78125 L 27.0625 -4.546875 L 14.078125 -4.546875 L 13.96875 -4.140625 C 13.625 -2.910156 13.304688 -1.738281 13.015625 -0.625 C 12.722656 0.476562 12.460938 1.507812 12.234375 2.46875 L 11.71875 4.375 L 5.859375 4.375 C 4.328125 4.332031 3.109375 4.300781 2.203125 4.28125 C 1.304688 4.257812 0.859375 4.226562 0.859375 4.1875 C 1.972656 0.707031 3.023438 -2.78125 4.015625 -6.28125 C 5.015625 -9.789062 5.992188 -13.328125 6.953125 -16.890625 C 6.953125 -16.972656 7.023438 -17.269531 7.171875 -17.78125 C 7.328125 -18.300781 7.445312 -18.710938 7.53125 -19.015625 C 7.71875 -19.597656 7.890625 -20.175781 8.046875 -20.75 C 8.203125 -21.320312 8.351562 -21.914062 8.5 -22.53125 C 8.65625 -23.0625 8.816406 -23.648438 8.984375 -24.296875 C 9.160156 -24.953125 9.363281 -25.664062 9.59375 -26.4375 C 9.632812 -26.550781 9.691406 -26.769531 9.765625 -27.09375 C 9.847656 -27.414062 9.9375 -27.757812 10.03125 -28.125 C 10.125 -28.488281 10.21875 -28.832031 10.3125 -29.15625 C 10.40625 -29.488281 10.453125 -29.691406 10.453125 -29.765625 C 10.535156 -29.960938 10.613281 -30.191406 10.6875 -30.453125 C 10.757812 -30.722656 10.851562 -31.050781 10.96875 -31.4375 C 11.164062 -32.195312 11.285156 -32.632812 11.328125 -32.75 C 11.398438 -32.945312 11.484375 -33.273438 11.578125 -33.734375 C 11.671875 -34.191406 11.816406 -34.765625 12.015625 -35.453125 C 12.316406 -36.378906 12.46875 -36.957031 12.46875 -37.1875 C 12.46875 -37.875 12.179688 -38.367188 11.609375 -38.671875 Z M 21.328125 -26.328125 C 20.859375 -28.160156 20.585938 -29.078125 20.515625 -29.078125 C 20.441406 -28.847656 20.269531 -28.117188 20 -26.890625 C 19.925781 -26.585938 19.832031 -26.175781 19.71875 -25.65625 C 19.601562 -25.144531 19.445312 -24.503906 19.25 -23.734375 C 19.175781 -23.503906 19.039062 -22.96875 18.84375 -22.125 C 18.65625 -21.28125 18.445312 -20.398438 18.21875 -19.484375 C 17.914062 -18.410156 17.609375 -17.238281 17.296875 -15.96875 C 16.910156 -14.4375 16.71875 -13.613281 16.71875 -13.5 C 16.71875 -13.425781 18.039062 -13.390625 20.6875 -13.390625 L 24.65625 -13.390625 L 24.546875 -13.96875 C 24.234375 -15.1875 23.804688 -16.820312 23.265625 -18.875 C 22.734375 -20.925781 22.085938 -23.410156 21.328125 -26.328125 Z M 21.328125 -26.328125 "/></g></g></g><g fill="#000000" fill-opacity="1"><g transform="translate(136.845552, 67.274472)"><g><path d="M 16.09375 -20.625 L 19.421875 -20.625 C 20.378906 -20.625 21.144531 -20.632812 21.71875 -20.65625 C 22.289062 -20.675781 22.695312 -20.707031 22.9375 -20.75 C 23.351562 -20.78125 23.890625 -20.953125 24.546875 -21.265625 C 25.347656 -21.679688 25.941406 -22.3125 26.328125 -23.15625 C 26.859375 -24.34375 26.953125 -25.609375 26.609375 -26.953125 C 26.265625 -28.367188 25.476562 -29.304688 24.25 -29.765625 L 23.671875 -30.109375 L 19.890625 -30.171875 L 17.359375 -30.171875 L 17.359375 -38.84375 C 19.304688 -38.84375 20.882812 -38.84375 22.09375 -38.84375 C 23.300781 -38.84375 24.25 -38.84375 24.9375 -38.84375 C 25.625 -38.84375 26.117188 -38.832031 26.421875 -38.8125 C 26.734375 -38.800781 26.945312 -38.796875 27.0625 -38.796875 C 30.320312 -38.523438 32.925781 -37.59375 34.875 -36 C 36.832031 -34.414062 38.117188 -31.992188 38.734375 -28.734375 C 39.234375 -25.585938 38.878906 -22.960938 37.671875 -20.859375 C 36.460938 -18.753906 34.535156 -17.488281 31.890625 -17.0625 L 31.09375 -17.015625 L 31.84375 -16.84375 C 34.363281 -16.457031 36.085938 -15.210938 37.015625 -13.109375 C 37.273438 -12.566406 37.488281 -11.773438 37.65625 -10.734375 C 37.832031 -9.703125 38 -8.382812 38.15625 -6.78125 C 38.613281 -0.800781 38.84375 2.78125 38.84375 3.96875 L 38.84375 4.375 L 26.671875 4.375 L 26.546875 3.84375 C 26.515625 3.613281 26.488281 3.222656 26.46875 2.671875 C 26.445312 2.117188 26.398438 1.421875 26.328125 0.578125 C 25.972656 -5.742188 25.507812 -9.519531 24.9375 -10.75 C 24.75 -11.132812 24.097656 -11.441406 22.984375 -11.671875 C 22.566406 -11.742188 21.285156 -11.816406 19.140625 -11.890625 L 16.09375 -11.890625 L 16.09375 4.375 L 4.421875 4.375 L 4.421875 -16.546875 C 4.460938 -21.609375 4.472656 -25.632812 4.453125 -28.625 C 4.429688 -31.613281 4.421875 -33.625 4.421875 -34.65625 C 4.347656 -36.601562 4.269531 -37.65625 4.1875 -37.8125 C 4 -38.269531 3.695312 -38.597656 3.28125 -38.796875 C 3.507812 -38.796875 3.773438 -38.796875 4.078125 -38.796875 C 4.390625 -38.796875 4.742188 -38.800781 5.140625 -38.8125 C 5.546875 -38.832031 6.015625 -38.84375 6.546875 -38.84375 L 16.09375 -38.84375 Z M 16.09375 -20.625 "/></g></g></g><g fill="#000000" fill-opacity="1"><g transform="translate(179.42429, 67.274472)"><g><path d="M 3.390625 -38.734375 C 3.347656 -38.734375 3.382812 -38.753906 3.5 -38.796875 C 3.695312 -38.828125 4.28125 -38.84375 5.25 -38.84375 C 6.226562 -38.84375 7.617188 -38.84375 9.421875 -38.84375 L 15.859375 -38.84375 L 15.859375 4.375 L 4.1875 4.375 L 4.1875 -37.875 L 3.96875 -38.21875 C 3.738281 -38.445312 3.546875 -38.617188 3.390625 -38.734375 Z M 20.0625 -39.140625 C 20.4375 -39.171875 20.882812 -39.195312 21.40625 -39.21875 C 21.925781 -39.238281 22.53125 -39.226562 23.21875 -39.1875 C 24.820312 -39.113281 26.296875 -38.941406 27.640625 -38.671875 C 28.984375 -38.410156 30.226562 -37.988281 31.375 -37.40625 C 32.53125 -36.832031 33.59375 -36.09375 34.5625 -35.1875 C 35.539062 -34.289062 36.488281 -33.15625 37.40625 -31.78125 C 39.132812 -29.132812 40.320312 -26.125 40.96875 -22.75 C 41.550781 -19.6875 41.707031 -16.71875 41.4375 -13.84375 C 41.164062 -11.125 40.507812 -8.632812 39.46875 -6.375 C 38.4375 -4.113281 37.078125 -2.160156 35.390625 -0.515625 C 33.710938 1.128906 31.734375 2.398438 29.453125 3.296875 C 27.171875 4.203125 24.632812 4.65625 21.84375 4.65625 C 21 4.65625 20.226562 4.609375 19.53125 4.515625 C 18.84375 4.421875 18.191406 4.273438 17.578125 4.078125 C 17.429688 4.035156 17.359375 2.675781 17.359375 0 L 17.359375 -4.015625 L 19.1875 -4.015625 C 21.101562 -4.015625 22.710938 -4.300781 24.015625 -4.875 C 25.316406 -5.457031 26.367188 -6.273438 27.171875 -7.328125 C 27.984375 -8.378906 28.570312 -9.648438 28.9375 -11.140625 C 29.300781 -12.640625 29.519531 -14.328125 29.59375 -16.203125 C 29.675781 -17.617188 29.648438 -19.160156 29.515625 -20.828125 C 29.378906 -22.492188 29.0625 -24 28.5625 -25.34375 C 28.21875 -26.34375 27.726562 -27.164062 27.09375 -27.8125 C 26.457031 -28.46875 25.75 -28.992188 24.96875 -29.390625 C 24.1875 -29.796875 23.34375 -30.09375 22.4375 -30.28125 C 21.539062 -30.476562 20.613281 -30.59375 19.65625 -30.625 L 17.359375 -30.6875 L 17.359375 -38.625 L 18.28125 -38.84375 C 18.96875 -39.039062 19.5625 -39.140625 20.0625 -39.140625 Z M 20.0625 -39.140625 "/></g></g></g><g fill="#000000" fill-opacity="1"><g transform="translate(223.611965, 67.274472)"><g><path d="M 3.734375 -38.625 L 3.28125 -38.84375 L 16.265625 -38.84375 L 16.265625 4.375 L 4.59375 4.375 L 4.59375 -37.53125 L 4.421875 -37.921875 C 4.265625 -38.234375 4.035156 -38.46875 3.734375 -38.625 Z M 3.734375 -38.625 "/></g></g></g><g fill="#000000" fill-opacity="1"><g transform="translate(244.183072, 67.274472)"><g><path d="M 2.359375 -38.625 L 1.84375 -38.84375 L 16.09375 -38.84375 L 16.15625 -23.453125 L 16.15625 -8.28125 L 16.5 -7.40625 C 17.03125 -5.6875 18.390625 -4.484375 20.578125 -3.796875 C 21.078125 -3.753906 21.328125 -3.617188 21.328125 -3.390625 C 21.328125 -3.316406 21.328125 -2.929688 21.328125 -2.234375 C 21.328125 -1.546875 21.304688 -0.550781 21.265625 0.75 L 21.265625 4.71875 C 19.648438 4.71875 18.035156 4.640625 16.421875 4.484375 C 14.816406 4.328125 13.289062 3.828125 11.84375 2.984375 C 10.15625 2.179688 8.6875 1.070312 7.4375 -0.34375 C 6.195312 -1.757812 5.289062 -3.347656 4.71875 -5.109375 C 4.5625 -5.648438 4.429688 -6.195312 4.328125 -6.75 C 4.234375 -7.300781 4.171875 -7.90625 4.140625 -8.5625 C 4.097656 -9.175781 4.066406 -10.613281 4.046875 -12.875 C 4.023438 -15.132812 4.015625 -18.179688 4.015625 -22.015625 L 4.015625 -24.765625 C 4.054688 -27.867188 4.066406 -30.335938 4.046875 -32.171875 C 4.023438 -34.015625 4 -35.207031 3.96875 -35.75 C 3.925781 -36.738281 3.734375 -37.425781 3.390625 -37.8125 C 3.046875 -38.15625 2.703125 -38.425781 2.359375 -38.625 Z M 25.625 -38.671875 C 25.476562 -38.710938 25.519531 -38.769531 25.75 -38.84375 L 40.0625 -38.84375 L 40.0625 -23.90625 C 40.0625 -19.082031 40.050781 -15.363281 40.03125 -12.75 C 40.007812 -10.144531 39.976562 -8.691406 39.9375 -8.390625 C 39.707031 -6.398438 39.160156 -4.585938 38.296875 -2.953125 C 37.441406 -1.328125 36.34375 0.0351562 35 1.140625 C 33.65625 2.253906 32.117188 3.117188 30.390625 3.734375 C 28.671875 4.347656 26.835938 4.65625 24.890625 4.65625 L 22.875 4.65625 L 22.9375 0.34375 L 22.9375 -3.796875 L 23.328125 -3.84375 C 24.367188 -4.039062 25.304688 -4.566406 26.140625 -5.421875 C 26.984375 -6.285156 27.582031 -7.3125 27.9375 -8.5 C 28.050781 -8.957031 28.109375 -13.59375 28.109375 -22.40625 C 28.109375 -31.375 28.050781 -36.03125 27.9375 -36.375 C 27.582031 -37.445312 26.8125 -38.210938 25.625 -38.671875 Z M 25.625 -38.671875 "/></g></g></g><g fill="#000000" fill-opacity="1"><g transform="translate(288.255805, 67.274472)"><g><path d="M 3.390625 -38.671875 C 3.316406 -38.710938 3.351562 -38.753906 3.5 -38.796875 C 3.726562 -38.828125 4.582031 -38.84375 6.0625 -38.84375 C 7.539062 -38.84375 9.65625 -38.84375 12.40625 -38.84375 C 18.65625 -38.84375 21.816406 -38.804688 21.890625 -38.734375 C 21.972656 -38.347656 22.378906 -36.453125 23.109375 -33.046875 C 23.109375 -33.003906 23.132812 -32.835938 23.1875 -32.546875 C 23.25 -32.265625 23.316406 -31.953125 23.390625 -31.609375 C 23.460938 -31.265625 23.523438 -30.925781 23.578125 -30.59375 C 23.640625 -30.269531 23.691406 -30.035156 23.734375 -29.890625 C 24.347656 -27.128906 24.929688 -24.394531 25.484375 -21.6875 C 26.046875 -18.988281 26.59375 -16.257812 27.125 -13.5 C 27.28125 -12.46875 27.394531 -11.914062 27.46875 -11.84375 L 28.21875 -14.484375 C 28.375 -15.054688 28.566406 -15.847656 28.796875 -16.859375 C 29.023438 -17.878906 29.289062 -19.117188 29.59375 -20.578125 C 29.90625 -21.566406 30.175781 -22.578125 30.40625 -23.609375 C 30.632812 -24.648438 30.84375 -25.6875 31.03125 -26.71875 C 31.226562 -27.375 31.398438 -28.066406 31.546875 -28.796875 C 31.703125 -29.367188 31.851562 -30.007812 32 -30.71875 C 32.15625 -31.425781 32.289062 -32.101562 32.40625 -32.75 C 33.332031 -36.507812 33.796875 -38.410156 33.796875 -38.453125 L 33.90625 -38.84375 L 50.75 -38.84375 L 50.75 4.375 L 39.53125 4.375 L 39.53125 -30.453125 L 38.90625 -28.046875 C 37.757812 -23.523438 36.640625 -18.789062 35.546875 -13.84375 C 34.453125 -8.90625 33.390625 -3.734375 32.359375 1.671875 L 31.84375 4.375 L 21.890625 4.375 L 21.546875 2.40625 C 21.046875 -0.5 20.585938 -3.128906 20.171875 -5.484375 C 19.753906 -7.835938 19.367188 -9.9375 19.015625 -11.78125 C 18.367188 -15.269531 17.832031 -18.101562 17.40625 -20.28125 C 16.988281 -22.46875 16.6875 -24.0625 16.5 -25.0625 C 16.300781 -26.050781 16.144531 -26.84375 16.03125 -27.4375 C 15.914062 -28.03125 15.835938 -28.425781 15.796875 -28.625 C 15.796875 -28.769531 15.785156 -28.691406 15.765625 -28.390625 C 15.753906 -28.085938 15.75 -27.300781 15.75 -26.03125 C 15.78125 -25.414062 15.785156 -24.695312 15.765625 -23.875 C 15.753906 -23.050781 15.75 -22.144531 15.75 -21.15625 C 15.707031 -20.15625 15.6875 -18.925781 15.6875 -17.46875 C 15.6875 -16.007812 15.6875 -14.34375 15.6875 -12.46875 L 15.6875 4.375 L 4.25 4.375 L 4.25 -16.78125 C 4.25 -22.03125 4.25 -26.1875 4.25 -29.25 C 4.25 -32.3125 4.226562 -34.304688 4.1875 -35.234375 C 4.113281 -37.066406 4.039062 -38.0625 3.96875 -38.21875 C 3.882812 -38.40625 3.691406 -38.554688 3.390625 -38.671875 Z M 3.390625 -38.671875 "/></g></g></g></svg>